<?xml version="1.0" encoding="utf-8"?>
<!-- Uploaded to: SVG Repo, www.svgrepo.com, Generator: SVG Repo Mixer Tools -->
<svg width="800px" height="800px" viewBox="0 0 1024 1024" class="icon"  version="1.1" xmlns="http://www.w3.org/2000/svg"><path d="M889.202585 296.368893v432.636883l-374.709001 216.334426-374.677031-216.334426V296.368893l374.677031-216.334426z" fill="#5FCEFF" /><path d="M514.493584 967.718523a22.378321 22.378321 0 0 1-11.18916-2.998695l-374.677032-216.334426a22.381518 22.381518 0 0 1-11.18916-19.382823V296.368893a22.375124 22.375124 0 0 1 11.18916-19.379626l374.677032-216.334426a22.36873 22.36873 0 0 1 22.378321 0l374.709 216.334426a22.375124 22.375124 0 0 1 11.189161 19.379626v432.636883a22.381518 22.381518 0 0 1-11.189161 19.382823l-374.709 216.334426a22.407093 22.407093 0 0 1-11.189161 2.995498z m-352.29871-251.631432l352.29871 203.412544 352.33068-203.412544V309.287578l-352.33068-203.412544-352.29871 203.412544v406.799513z" fill="#4F46A3" /><path d="M407.780962 735.943055c-48.343567 0-93.79074-18.826562-127.972027-53.007848-34.200468-34.197271-53.036621-79.657232-53.036621-128.0008v-221.289625a22.378321 22.378321 0 1 1 44.756642 0v221.289625c0 36.390347 14.181462 70.6068 39.929319 96.354657 25.725478 25.731872 59.935537 39.897349 96.322687 39.897349 75.127221 0 136.252006-61.121588 136.252006-136.252006v-221.289625a22.378321 22.378321 0 1 1 44.756642 0v221.289625c0 99.807312-81.201336 181.008648-181.008648 181.008648zM706.307764 735.943055a22.378321 22.378321 0 0 1-22.378321-22.378321v-379.919952a22.378321 22.378321 0 1 1 44.756642 0v379.919952a22.378321 22.378321 0 0 1-22.378321 22.378321z" fill="#4F46A3" /><path d="M407.780962 657.203334c-30.818145 0-59.762905-11.99478-81.501845-33.772083-21.751728-21.710168-33.746508-50.667716-33.746508-81.505042v-206.267378a22.378321 22.378321 0 1 1 44.756642 0v206.267378c0 18.868122 7.327302 36.57257 20.636009 49.858899 13.311904 13.337479 31.006762 20.664781 49.855702 20.664781 38.871144 0 70.491711-31.636552 70.491711-70.52368v-206.267378a22.378321 22.378321 0 1 1 44.756642 0v206.267378c0 63.564022-51.700315 115.277125-115.248353 115.277125zM776.63963 735.943055a22.378321 22.378321 0 0 1-22.378321-22.378321v-379.919952a22.378321 22.378321 0 1 1 44.756642 0v379.919952a22.378321 22.378321 0 0 1-22.378321 22.378321z" fill="#4F46A3" /></svg>